<?xml version="1.0" encoding="UTF-8"?>
<svg id="Calque_1" xmlns="http://www.w3.org/2000/svg" version="1.1" viewBox="0 0 506.08 506.08">
  <!-- Generator: Adobe Illustrator 30.0.0, SVG Export Plug-In . SVG Version: 2.1.1 Build 123)  -->
  <defs>
    <style>
      .st0 {
        fill: #00004d;
      }

      .st1 {
        fill: #fff;
      }
    </style>
  </defs>
  <rect class="st0" x="0" width="506.08" height="506.08"/>
  <g>
    <path class="st1" d="M401.36,315.73c-.59-.1-2.62-.4-3.16-.49-1.71-.3-3.41-.63-5.1-1-22.23-4.84-38.99-16.24-54.39-31.91-15.06-15.32-28.68-31.79-46.68-43.89-40.7-27.38-97.84-27.41-140.7-5.33-34.85,17.95-60.28,49.91-70.78,86.79v105.62h36.68c-7.59-16.58-14.49-34.91-16.44-51.55-3.29-28.12,2.31-56.15,18.01-79.93,11.22-16.99,26.01-29.6,43.52-38.91,20.71-11.01,44.53-14.73,67.75-12.67,1.36.12,2.72.27,4.08.42.26.03.38.04.57.06.09.02.19.03.42.07,1.85.28,3.69.59,5.53.95,5.12.99,10.17,2.29,15.13,3.92,10.28,3.38,19.91,8.65,28.53,15.18,14.99,11.36,28.08,28.43,42.33,41.98,17.37,16.52,38.02,28.54,61.68,33.32,12.15,2.46,24.7,3.41,37.18,2.87v-24.66c-3.39.18-6.79.25-10.2.17-4.67-.11-9.33-.45-13.97-1.02Z"/>
    <path class="st1" d="M414.38,266.29c-.47-.03-.94-.1-1.41-.15-.39-.07-1.91-.29-2.11-.33-4-.79-7.92-1.73-11.78-3.06-3.29-1.14-6.23-2.47-10.04-4.65-1.53-.87-3.03-1.79-4.5-2.76-1.1-.72-2.18-1.46-3.24-2.23-.19-.14-1.66-1.26-1.97-1.48-13.49-10.73-24.35-24.4-36.56-36.48-15.29-15.13-32.54-27.5-52.47-35.73-37.78-15.6-83.25-14.88-122.65-5.37-33.63,8.12-63.74,25.22-87.1,49.58v39.81c20.66-31.97,51.55-54.52,89.3-64.55,35.09-9.32,77.74-10.84,112.62,3.74,17.82,7.45,32.54,19.35,45.93,33,12.51,12.75,24,26.39,38.35,37.19,18.14,13.64,38.36,18.59,58.76,17.75v-24.11c-1.87.09-3.73.2-5.61.15-1.85-.05-3.69-.18-5.54-.32Z"/>
    <path class="st1" d="M420.24,210.61c-7.08-1.99-13.61-5.03-19.68-9.2-13.49-9.25-24.98-25.48-38.15-36.87-37.97-32.83-88.55-45.47-137.94-43.3-9.68.42-19.26,1.34-28.76,2.62l-48.89,36.93c22.96-8.2,47.01-13.02,71.8-14.61,45.74-2.93,94.02,6.44,128.94,38.03,13.52,12.23,24.47,26.98,39.41,37.64,11.43,8.15,24.8,12.77,38.56,14.88v-24.92c-1.77-.38-3.54-.73-5.28-1.21Z"/>
    <path class="st1" d="M247.79,102.35c14.06.83,28,2.8,41.74,5.77l-36.49-27.56-28.48,21.51c7.72-.2,15.47-.17,23.23.28Z"/>
    <path class="st1" d="M214.85,319.39c-11.58,2.37-22.66,9.43-29.99,18.61-9.63,12.05-11.75,26.44-9.25,41.36,2.77,16.58,10.93,31.9,20.42,46.17h30.21c-4.06-5.85-8.02-11.77-11.8-17.82-4.64-7.4-10-15.59-12.37-23.05-2.6-8.2-4.88-18.28-1.17-26.44,3.43-7.53,11.06-12.74,18.9-14.72,15.22-3.85,29.57,10.59,39.2,21.58,10.6,12.1,20.19,25.54,28.29,39.44,3.97,6.82,7.48,13.84,10.61,21.01h26.4c-11.61-29.62-28.7-57.04-50.3-80.55-15.26-16.62-35.6-30.39-59.14-25.58Z"/>
    <path class="st1" d="M228.13,377.11c-4.94,5.39-4.28,12,0,17.41,1.74,2.2,3.48,4.4,5.19,6.61.27.36,1.71,2.24,1.89,2.48.68.9,1.35,1.81,2.02,2.72,3.44,4.69,6.72,9.51,9.66,14.53.89,1.52,1.69,3.1,2.52,4.66h27.06c-6.86-17.85-19.14-33.5-30.92-48.41-4.01-5.08-13.27-4.51-17.41,0Z"/>
    <path class="st1" d="M382.42,361.17c-14.36-3.37-27.95-8.83-40.65-16.34-4.99-2.95-9.8-6.19-14.45-9.65-.25-.18-.41-.3-.53-.39-.12-.1-.25-.21-.47-.38-.78-.62-1.55-1.25-2.32-1.88-1.49-1.23-2.96-2.5-4.4-3.79-.07-.06-.14-.09-.21-.15-18.68-22.63-40.4-43.44-68.8-52.77-24.96-8.19-52.47-4.43-75.67,7.31-25.96,13.14-43.43,38.45-48.53,66.9-3.7,20.64-.48,39.97,8.64,58.68,2.76,5.67,5.74,11.27,8.82,16.82h28.77c-3.78-6.27-7.45-12.61-10.98-19.04-6.68-12.16-12.16-23.69-12.34-38-.18-14.04,3.99-27.35,10.61-38.92.96-1.67,1.96-3.32,3.03-4.92.69-1.03,1.99-4.06.94-1.46-.06.15-.1.23-.15.35.14-.26.31-.53.49-.74.82-.96,1.63-1.93,2.48-2.86,1.24-1.36,2.53-2.67,3.86-3.94,2.62-2.5,5.36-4.73,8.38-6.72,10.49-6.94,21.53-10.56,34.06-12.69.26-.04.41-.07.57-.1.09,0,.24-.01.48-.04.83-.07,1.65-.17,2.48-.24,1.44-.12,2.88-.21,4.32-.25,5.34-.13,10.6.36,15.8,1.55,26.22,5.99,46.34,25.53,63.16,45.76.61.99,1.34,1.97,2.37,2.88,0,0,.02.01.02.02,1.06,1.3,2.11,2.6,3.14,3.9,18.34,23.03,33.74,48.07,44.55,75.46h75.63v-14.29c-18.92.3-37.87-.76-56.29-3.32-4.52-10.41-9.62-20.51-15.32-30.31,22.76,8.81,47.23,12.68,71.61,11.17v-24.52c-14.36,1.19-28.89.25-43.11-3.09Z"/>
  </g>
</svg>