<svg xmlns="http://www.w3.org/2000/svg" xmlns:xlink="http://www.w3.org/1999/xlink" width="506.08" height="506.08" viewBox="0 0 506.08 506.08">
  <defs>
    <linearGradient id="linear-gradient" x1="-0.102" y1="0.719" x2="1.102" y2="0.281" gradientUnits="objectBoundingBox">
      <stop offset="0" stop-color="#3dff9e"/>
      <stop offset="0.06" stop-color="#38f3a4"/>
      <stop offset="0.17" stop-color="#2dd3b6"/>
      <stop offset="0.32" stop-color="#1b9fd2"/>
      <stop offset="0.49" stop-color="#0359f9"/>
      <stop offset="0.52" stop-color="#0050ff"/>
      <stop offset="0.55" stop-color="#003ed7"/>
      <stop offset="0.6" stop-color="#002bad"/>
      <stop offset="0.65" stop-color="#001b8a"/>
      <stop offset="0.69" stop-color="#000f6f"/>
      <stop offset="0.74" stop-color="#00065c"/>
      <stop offset="0.79" stop-color="#000150"/>
      <stop offset="0.84" stop-color="#00004d"/>
    </linearGradient>
  </defs>
  <g id="Groupe_436" data-name="Groupe 436" transform="translate(1541 1561)">
    <rect id="Rectangle_545" data-name="Rectangle 545" width="506.08" height="506.08" transform="translate(-1541 -1561)" fill="url(#linear-gradient)"/>
    <g id="Groupe_435" data-name="Groupe 435" transform="translate(-1517.55 -1537.56)">
      <path id="Tracé_109" data-name="Tracé 109" d="M358.065,302.429c-.51-.087-2.266-.346-2.734-.424q-2.219-.389-4.412-.865c-19.23-4.187-33.728-14.048-47.05-27.6-13.028-13.253-24.809-27.5-40.38-37.967-35.207-23.685-84.636-23.711-121.712-4.611A122.289,122.289,0,0,0,80.55,306.036V397.4h31.73c-6.566-14.342-12.534-30.2-14.221-44.593-2.846-24.325,2-48.572,15.579-69.143,9.706-14.7,22.5-25.605,37.647-33.659,17.915-9.524,38.52-12.742,58.607-10.96,1.176.1,2.353.234,3.529.363.225.026.329.035.493.052.078.017.164.026.363.061,1.6.242,3.192.51,4.784.822a106.882,106.882,0,0,1,13.088,3.391,85.156,85.156,0,0,1,24.68,13.131c12.967,9.827,24.29,24.593,36.617,36.315,15.026,14.291,32.889,24.688,53.356,28.823a133.416,133.416,0,0,0,32.162,2.483V303.156c-2.932.156-5.874.216-8.823.147q-6.06-.143-12.085-.882Z" transform="translate(0 -18.437)" fill="#fff"/>
      <path id="Tracé_110" data-name="Tracé 110" d="M369.328,252.922c-.407-.026-.813-.087-1.22-.13-.337-.061-1.652-.251-1.825-.285a76.661,76.661,0,0,1-10.19-2.647,48.614,48.614,0,0,1-8.685-4.022q-1.985-1.129-3.893-2.388c-.952-.623-1.886-1.263-2.8-1.929-.164-.121-1.436-1.09-1.7-1.28-11.669-9.282-21.064-21.107-31.626-31.557-13.227-13.088-28.149-23.789-45.389-30.908-32.681-13.495-72.015-12.872-106.1-4.645A154,154,0,0,0,80.55,216.02v34.437c17.872-27.655,44.593-47.162,77.249-55.839,30.354-8.062,67.249-9.377,97.421,3.235,15.415,6.445,28.149,16.739,39.731,28.546,10.822,11.029,20.761,22.829,33.174,32.171,15.692,11.8,33.183,16.081,50.83,15.355V253.069c-1.618.078-3.227.173-4.853.13-1.6-.043-3.192-.156-4.792-.277Z" transform="translate(0 -11.698)" fill="#fff"/>
      <path id="Tracé_111" data-name="Tracé 111" d="M383.341,198.517a57.031,57.031,0,0,1-17.024-7.958c-11.669-8-21.609-22.041-33-31.894-32.846-28.4-76.6-39.334-119.324-37.456-8.374.363-16.661,1.159-24.879,2.266L146.82,155.421a227.356,227.356,0,0,1,62.11-12.638c39.567-2.535,81.331,5.571,111.539,32.9,11.7,10.579,21.168,23.339,34.091,32.56,9.887,7.05,21.453,11.047,33.356,12.872V199.555c-1.531-.329-3.062-.631-4.567-1.047Z" transform="translate(-8.943 -5.458)" fill="#fff"/>
      <path id="Tracé_112" data-name="Tracé 112" d="M244.655,99.409a236.973,236.973,0,0,1,36.107,4.991L249.2,80.56,224.56,99.167C231.238,98.994,237.942,99.02,244.655,99.409Z" transform="translate(-19.435)" fill="#fff"/>
      <path id="Tracé_113" data-name="Tracé 113" d="M209.424,319.26a46.05,46.05,0,0,0-25.943,16.1c-8.33,10.424-10.164,22.872-8,35.778,2.4,14.342,9.455,27.595,17.664,39.939h26.133c-3.512-5.061-6.938-10.182-10.208-15.415-4.014-6.4-8.65-13.486-10.7-19.939-2.249-7.093-4.221-15.813-1.012-22.872,2.967-6.514,9.567-11.021,16.349-12.733,13.166-3.33,25.579,9.161,33.91,18.668A221.01,221.01,0,0,1,272.088,392.9a176.148,176.148,0,0,1,9.178,18.175H304.1A223.972,223.972,0,0,0,260.592,341.4c-13.2-14.377-30.8-26.289-51.159-22.128Z" transform="translate(-12.699 -32.102)" fill="#fff"/>
      <path id="Tracé_114" data-name="Tracé 114" d="M227.663,376.624c-4.273,4.663-3.7,10.381,0,15.06,1.505,1.9,3.01,3.806,4.49,5.718.234.311,1.479,1.938,1.635,2.145.588.779,1.168,1.566,1.747,2.353a146.633,146.633,0,0,1,8.356,12.569c.77,1.315,1.462,2.682,2.18,4.031h23.408c-5.934-15.441-16.557-28.979-26.747-41.877-3.469-4.394-11.479-3.9-15.06,0Z" transform="translate(-19.45 -39.535)" fill="#fff"/>
      <path id="Tracé_115" data-name="Tracé 115" d="M347.664,349.06A124.806,124.806,0,0,1,312.5,334.925a142.144,142.144,0,0,1-12.5-8.348c-.216-.156-.355-.26-.458-.337s-.216-.182-.407-.329c-.675-.536-1.341-1.081-2.007-1.626-1.289-1.064-2.561-2.163-3.806-3.279-.061-.052-.121-.078-.182-.13-16.159-19.576-34.948-37.578-59.515-45.648-21.592-7.085-45.389-3.832-65.458,6.323-22.457,11.367-37.569,33.261-41.981,57.871-3.2,17.854-.415,34.576,7.474,50.761,2.388,4.9,4.965,9.749,7.63,14.55h24.887q-4.9-8.136-9.5-16.47c-5.778-10.519-10.519-20.493-10.675-32.872a66.242,66.242,0,0,1,9.178-33.668c.83-1.445,1.7-2.872,2.621-4.256.6-.891,1.721-3.512.813-1.263-.052.13-.087.2-.13.3a3.734,3.734,0,0,1,.424-.64c.709-.83,1.41-1.67,2.145-2.474q1.609-1.765,3.339-3.408a51.438,51.438,0,0,1,7.249-5.813c9.074-6,18.624-9.135,29.463-10.977.225-.035.355-.061.493-.087a3.627,3.627,0,0,0,.415-.035c.718-.061,1.427-.147,2.145-.208,1.246-.1,2.491-.182,3.737-.216a54.967,54.967,0,0,1,13.668,1.341c22.681,5.182,40.086,22.085,54.636,39.584a10.736,10.736,0,0,0,2.05,2.491s.017.009.017.017q1.375,1.687,2.716,3.374c15.865,19.922,29.187,41.583,38.538,65.276h65.423V392.373a318.311,318.311,0,0,1-48.693-2.872A250.592,250.592,0,0,0,323,363.281a146.685,146.685,0,0,0,61.946,9.663V351.733a119.68,119.68,0,0,1-37.292-2.673Z" transform="translate(-5.983 -25.76)" fill="#fff"/>
    </g>
  </g>
</svg>
