<?xml version="1.0" encoding="UTF-8"?>
<svg id="Calque_1" xmlns="http://www.w3.org/2000/svg" version="1.1" viewBox="0 0 506.08 506.08">
  <!-- Generator: Adobe Illustrator 30.0.0, SVG Export Plug-In . SVG Version: 2.1.1 Build 123)  -->
  <defs>
    <style>
      .st0 {
        fill: #3dff9e;
      }
    </style>
  </defs>
  <path class="st0" d="M470.63,345.01c-.87-.14-3.85-.58-4.63-.72-2.5-.43-5-.92-7.48-1.46-32.62-7.1-57.2-23.82-79.79-46.81-22.09-22.48-42.08-46.63-68.48-64.39-59.71-40.16-143.53-40.21-206.42-7.82C52.72,250.15,15.4,297.04,0,351.14v154.95h53.81c-11.14-24.32-21.26-51.21-24.12-75.62-4.83-41.26,3.39-82.38,26.42-117.26,16.46-24.92,38.16-43.43,63.84-57.09,30.38-16.16,65.33-21.61,99.4-18.59,2,.18,4,.39,5.99.62.38.04.56.06.84.09.13.02.28.05.61.1,2.71.41,5.42.87,8.11,1.39,7.51,1.46,14.93,3.36,22.19,5.75,15.08,4.95,29.21,12.69,41.86,22.27,21.99,16.66,41.2,41.71,62.1,61.58,25.49,24.23,55.77,41.87,90.48,48.89,17.82,3.6,36.23,5,54.54,4.22v-36.18c-4.97.27-9.96.36-14.96.25-6.85-.16-13.69-.66-20.49-1.5Z"/>
  <path class="st0" d="M489.73,272.47c-.69-.05-1.38-.14-2.07-.22-.57-.1-2.8-.42-3.1-.48-5.86-1.16-11.62-2.54-17.28-4.49-4.83-1.67-9.13-3.63-14.73-6.82-2.24-1.28-4.44-2.63-6.6-4.04-1.61-1.06-3.19-2.15-4.76-3.27-.28-.2-2.43-1.85-2.89-2.18-19.79-15.74-35.72-35.8-53.63-53.52-22.44-22.2-47.73-40.35-76.98-52.42-55.43-22.88-122.14-21.83-179.93-7.87-49.34,11.91-93.51,37-127.77,72.73v58.41c30.3-46.9,75.63-79.98,131.01-94.69,51.48-13.68,114.05-15.91,165.23,5.49,26.15,10.93,47.74,28.39,67.39,48.42,18.35,18.7,35.21,38.72,56.26,54.55,26.61,20.01,56.28,27.27,86.2,26.04v-35.38c-2.74.13-5.48.29-8.23.22-2.72-.07-5.41-.27-8.12-.47Z"/>
  <path class="st0" d="M498.34,190.79c-10.39-2.92-19.96-7.38-28.88-13.5-19.79-13.56-36.65-37.38-55.97-54.08-55.7-48.16-129.91-66.7-202.36-63.52-14.19.62-28.26,1.96-42.2,3.85l-71.73,54.18c33.68-12.03,68.96-19.1,105.33-21.43,67.1-4.29,137.93,9.45,189.17,55.79,19.83,17.94,35.9,39.58,57.82,55.21,16.77,11.96,36.39,18.73,56.57,21.84v-36.56c-2.59-.55-5.2-1.06-7.75-1.78Z"/>
  <path class="st0" d="M245.34,31.97c20.63,1.21,41.08,4.1,61.24,8.46L253.04,0l-41.78,31.56c11.33-.29,22.69-.26,34.08.41Z"/>
  <path class="st0" d="M197.01,350.38c-16.99,3.47-33.24,13.83-44,27.31-14.12,17.68-17.24,38.78-13.57,60.67,4.07,24.32,16.04,46.8,29.95,67.73h44.33c-5.95-8.59-11.76-17.27-17.32-26.14-6.8-10.86-14.66-22.87-18.14-33.81-3.82-12.03-7.16-26.81-1.71-38.78,5.03-11.05,16.22-18.69,27.73-21.6,22.34-5.64,43.38,15.53,57.51,31.65,15.55,17.75,29.62,37.47,41.5,57.86,5.82,10,10.97,20.3,15.57,30.82h38.73c-17.03-43.46-42.1-83.69-73.79-118.18-22.39-24.38-52.23-44.58-86.77-37.53Z"/>
  <path class="st0" d="M216.49,435.06c-7.25,7.9-6.28,17.6,0,25.55,2.55,3.22,5.1,6.45,7.62,9.7.39.52,2.5,3.28,2.77,3.64.99,1.32,1.98,2.65,2.96,3.99,5.05,6.88,9.86,13.95,14.17,21.32,1.31,2.24,2.48,4.55,3.69,6.84h39.7c-10.06-26.18-28.07-49.15-45.37-71.02-5.89-7.45-19.47-6.62-25.55,0Z"/>
  <path class="st0" d="M442.84,411.67c-21.07-4.94-41.01-12.96-59.63-23.97-7.32-4.33-14.38-9.08-21.21-14.16-.36-.27-.6-.45-.78-.57-.17-.14-.37-.3-.69-.56-1.14-.92-2.28-1.83-3.4-2.76-2.19-1.81-4.34-3.67-6.46-5.56-.1-.09-.2-.13-.3-.22-27.41-33.21-59.27-63.73-100.94-77.41-36.62-12.02-76.98-6.5-111.01,10.72-38.08,19.27-63.72,56.41-71.2,98.15-5.42,30.28-.7,58.64,12.67,86.08,4.05,8.32,8.42,16.54,12.94,24.67h42.21c-5.54-9.2-10.92-18.5-16.11-27.94-9.81-17.83-17.84-34.75-18.1-55.75-.26-20.6,5.85-40.12,15.57-57.1,1.4-2.45,2.88-4.87,4.45-7.22,1.01-1.51,2.92-5.95,1.38-2.14-.09.22-.14.34-.21.52.21-.38.46-.78.72-1.09,1.21-1.4,2.39-2.83,3.63-4.19,1.82-1.99,3.71-3.92,5.66-5.79,3.84-3.66,7.87-6.93,12.29-9.86,15.39-10.18,31.59-15.49,49.97-18.62.38-.06.6-.1.84-.15.13,0,.35-.02.7-.05,1.21-.11,2.42-.25,3.63-.35,2.11-.17,4.22-.31,6.33-.36,7.83-.19,15.56.53,23.19,2.27,38.47,8.79,67.98,37.45,92.66,67.14.89,1.46,1.97,2.88,3.48,4.22.01.01.02.02.04.03,1.55,1.91,3.09,3.82,4.61,5.72,26.91,33.78,49.5,70.52,65.36,110.71h110.96v-20.97c-27.76.44-55.56-1.11-82.58-4.86-6.64-15.27-14.12-30.09-22.47-44.46,33.39,12.92,69.29,18.6,105.05,16.38v-35.97c-21.07,1.75-42.39.37-63.24-4.53Z"/>
</svg>