<?xml version="1.0" encoding="UTF-8"?>
<svg id="Calque_1" xmlns="http://www.w3.org/2000/svg" version="1.1" viewBox="0 0 2692.44 912.84">
  <!-- Generator: Adobe Illustrator 30.0.0, SVG Export Plug-In . SVG Version: 2.1.1 Build 123)  -->
  <defs>
    <style>
      .st0 {
        fill: #00004d;
      }

      .st1 {
        fill: #0050ff;
      }
    </style>
  </defs>
  <rect class="st1" width="2692.44" height="912.84"/>
  <g>
    <rect class="st0" x="1680.32" y="460.73" width="151.75" height="50.22"/>
    <path class="st0" d="M2111.89,277.62v131.37c-19.78-20.29-50.72-32.46-86.74-32.46-20.95,0-40.2,4.61-57.02,12.99v77.5c12.54-23.94,36.71-38.75,67.16-38.75,45.14,0,76.6,32.46,76.6,79.13s-31.45,79.13-76.6,79.13c-30.45,0-54.63-14.81-67.16-38.75v77.5c16.82,8.38,36.07,12.99,57.02,12.99,39.56,0,73.04-14.71,92.32-39.06l.5,33.48h50.72v-355.06h-56.81Z"/>
    <polygon class="st0" points="1872.98 382.11 1872.98 441.21 1872.98 573.58 1872.98 632.68 1910.41 632.68 1929.79 632.68 1929.79 594.3 1929.79 420.49 1929.79 382.11 1910.41 382.11 1872.98 382.11"/>
    <path class="st0" d="M1901.39,274.58c-20.8,0-36.02,14.71-36.02,35.51s15.22,34.49,36.02,34.49,37.03-14.71,37.03-34.49c0-20.8-15.22-35.51-37.03-35.51Z"/>
    <path class="st0" d="M1066.99,428.26c32.94,0,58.52,17.34,69.98,44.81,4.18-23.87,12.76-45.47,24.89-64.09-21.67-20.69-51.04-32.46-84.73-32.46-36.01,0-66.95,12.17-86.73,32.46v-131.37h-56.82v355.06h50.72l.51-33.48c19.27,24.35,52.75,39.06,92.31,39.06,33.69,0,63.06-11.76,84.73-32.46-12.14-18.62-20.71-40.23-24.89-64.1-11.46,27.48-37.04,44.81-69.98,44.81-44.64,0-76.59-32.46-76.59-79.13s31.95-79.13,76.59-79.13Z"/>
    <path class="st0" d="M1387.91,415.58c-19.28-24.35-52.25-39.06-91.3-39.06-33.74,0-62.58,11.42-84.02,31.11-10.65,9.78-19.54,21.53-26.16,35.08-9.1,18.64-14.09,40.51-14.09,64.67s4.99,46.03,14.09,64.67c6.62,13.55,15.51,25.3,26.16,35.08,21.44,19.69,50.28,31.11,84.02,31.11,38.55,0,72.03-14.71,91.3-39.06l.5,33.48h50.72v-250.57h-50.72l-.5,33.48ZM1305.73,586.52c-31.61,0-56.45-15.95-68.54-41.51-5.18-10.95-8.05-23.63-8.05-37.62s2.88-26.67,8.05-37.62c12.09-25.56,36.93-41.51,68.54-41.51,45.14,0,76.6,32.46,76.6,79.13s-31.45,79.13-76.6,79.13Z"/>
    <path class="st0" d="M1615.99,586.02c-23.34,0-35-14.2-35-39.56v-116.16h72.03v-48.19h-72.03v-71.52l-56.3,6.08v65.43h-47.18v48.19h47.18v116.16c0,59.85,30.43,89.78,82.17,89.78,20.8,0,37.03-3.55,56.3-12.18l-15.72-45.65c-9.64,4.56-21.3,7.61-31.45,7.61Z"/>
    <g>
      <path class="st0" d="M854.5,519.48c-.61-.1-2.71-.41-3.25-.5-1.76-.31-3.51-.65-5.26-1.03-22.92-4.99-40.2-16.74-56.07-32.9-15.52-15.8-29.57-32.77-48.13-45.25-41.97-28.23-100.88-28.26-145.07-5.49-35.93,18.51-62.15,51.46-72.98,89.48v108.9h37.82c-7.83-17.09-14.94-35.99-16.95-53.15-3.39-28.99,2.38-57.9,18.57-82.41,11.57-17.51,26.82-30.52,44.87-40.12,21.35-11.36,45.91-15.19,69.86-13.06,1.41.12,2.81.27,4.21.44.27.03.4.04.59.07.09.02.2.03.43.07,1.91.29,3.81.61,5.7.98,5.27,1.02,10.49,2.36,15.6,4.04,10.6,3.48,20.53,8.92,29.42,15.65,15.46,11.71,28.95,29.31,43.65,43.28,17.91,17.03,39.2,29.43,63.59,34.36,12.52,2.53,25.46,3.51,38.33,2.96v-25.42c-3.49.19-7,.25-10.52.17-4.81-.11-9.62-.46-14.4-1.05Z"/>
      <path class="st0" d="M867.92,468.5c-.48-.04-.97-.1-1.45-.15-.4-.07-1.97-.3-2.18-.34-4.12-.82-8.17-1.78-12.14-3.15-3.39-1.17-6.42-2.55-10.35-4.79-1.58-.9-3.12-1.85-4.64-2.84-1.13-.74-2.24-1.51-3.34-2.3-.19-.14-1.71-1.3-2.03-1.53-13.91-11.07-25.11-25.16-37.69-37.61-15.77-15.6-33.55-28.36-54.1-36.84-38.95-16.08-85.84-15.34-126.45-5.53-34.67,8.37-65.72,26-89.8,51.11v41.05c21.3-32.96,53.15-56.21,92.07-66.55,36.18-9.61,80.15-11.18,116.12,3.86,18.38,7.68,33.55,19.95,47.36,34.03,12.9,13.15,24.74,27.21,39.54,38.34,18.7,14.06,39.55,19.17,60.58,18.3v-24.86c-1.93.09-3.85.2-5.78.15-1.91-.05-3.8-.19-5.71-.33Z"/>
      <path class="st0" d="M873.97,411.09c-7.3-2.05-14.03-5.19-20.3-9.49-13.91-9.53-25.76-26.27-39.34-38.01-39.15-33.85-91.3-46.88-142.22-44.64-9.98.44-19.86,1.38-29.66,2.7l-50.41,38.07c23.67-8.46,48.47-13.43,74.03-15.06,47.16-3.02,96.94,6.64,132.94,39.21,13.94,12.61,25.23,27.82,40.63,38.8,11.78,8.41,25.57,13.16,39.76,15.35v-25.69c-1.82-.39-3.65-.75-5.45-1.25Z"/>
      <path class="st0" d="M696.16,299.48c14.5.85,28.87,2.88,43.04,5.95l-37.63-28.42-29.37,22.18c7.96-.2,15.95-.18,23.95.29Z"/>
      <path class="st0" d="M662.2,523.25c-11.94,2.44-23.36,9.72-30.93,19.19-9.92,12.43-12.11,27.26-9.54,42.64,2.86,17.09,11.27,32.89,21.05,47.6h31.15c-4.18-6.03-8.26-12.14-12.17-18.37-4.78-7.63-10.31-16.07-12.75-23.76-2.69-8.45-5.03-18.84-1.2-27.26,3.53-7.77,11.4-13.14,19.49-15.18,15.7-3.97,30.49,10.92,40.42,22.24,10.93,12.47,20.82,26.33,29.17,40.67,4.09,7.03,7.71,14.27,10.94,21.66h27.22c-11.97-30.54-29.59-58.81-51.86-83.05-15.74-17.13-36.7-31.33-60.98-26.38Z"/>
      <path class="st0" d="M675.89,582.76c-5.1,5.55-4.42,12.37,0,17.95,1.79,2.27,3.58,4.53,5.35,6.82.28.37,1.76,2.31,1.95,2.56.7.93,1.39,1.86,2.08,2.8,3.55,4.84,6.93,9.8,9.96,14.98.92,1.57,1.75,3.19,2.59,4.8h27.9c-7.07-18.4-19.73-34.54-31.88-49.91-4.14-5.23-13.68-4.65-17.95,0Z"/>
      <path class="st0" d="M834.97,566.32c-14.81-3.47-28.82-9.11-41.91-16.85-5.15-3.04-10.11-6.38-14.9-9.95-.26-.19-.42-.31-.55-.4-.12-.1-.26-.21-.49-.4-.8-.64-1.6-1.29-2.39-1.94-1.54-1.27-3.05-2.58-4.54-3.91-.07-.06-.14-.09-.21-.15-19.26-23.34-41.66-44.79-70.94-54.4-25.74-8.45-54.1-4.57-78.02,7.54-26.76,13.54-44.78,39.65-50.04,68.98-3.81,21.28-.5,41.21,8.9,60.5,2.85,5.85,5.92,11.62,9.1,17.34h29.67c-3.9-6.46-7.68-13-11.32-19.63-6.89-12.53-12.54-24.42-12.72-39.18-.18-14.48,4.11-28.2,10.94-40.13.99-1.72,2.02-3.42,3.12-5.07.71-1.06,2.05-4.18.97-1.5-.06.15-.1.24-.15.36.15-.27.32-.55.51-.76.85-.99,1.68-1.99,2.55-2.95,1.28-1.4,2.6-2.76,3.98-4.07,2.7-2.57,5.53-4.87,8.64-6.93,10.82-7.16,22.2-10.88,35.12-13.09.27-.05.42-.07.59-.1.09,0,.24-.01.49-.04.85-.08,1.7-.18,2.55-.25,1.48-.12,2.97-.22,4.45-.25,5.5-.13,10.93.37,16.3,1.59,27.04,6.18,47.78,26.32,65.12,47.18.63,1.02,1.39,2.03,2.44,2.97,0,0,.02.01.02.02,1.09,1.34,2.17,2.68,3.24,4.02,18.91,23.74,34.79,49.56,45.93,77.8h77.98v-14.74c-19.51.31-39.05-.78-58.04-3.42-4.66-10.73-9.92-21.15-15.79-31.25,23.46,9.08,48.7,13.07,73.83,11.52v-25.28c-14.81,1.23-29.79.26-44.45-3.18Z"/>
    </g>
  </g>
</svg>