<?xml version="1.0" encoding="UTF-8"?>
<svg id="Calque_1" xmlns="http://www.w3.org/2000/svg" version="1.1" viewBox="0 0 2692.44 595.28">
  <!-- Generator: Adobe Illustrator 30.0.0, SVG Export Plug-In . SVG Version: 2.1.1 Build 123)  -->
  <defs>
    <style>
      .st0 {
        fill: #00004d;
      }
    </style>
  </defs>
  <rect class="st0" x="1893.07" y="304.69" width="248.38" height="82.2"/>
  <path class="st0" d="M2599.46,4.98v215.03c-32.38-33.21-83.02-53.13-141.98-53.13-34.29,0-65.79,7.54-93.33,21.26v126.85c20.52-39.19,60.09-63.43,109.93-63.43,73.89,0,125.37,53.13,125.37,129.52s-51.48,129.52-125.37,129.52c-49.85,0-89.41-24.25-109.93-63.43v126.86c27.54,13.72,59.04,21.26,93.33,21.26,64.76,0,119.56-24.07,151.11-63.93l.83,54.8h83.02V4.98h-92.98Z"/>
  <polygon class="st0" points="2208.41 176.01 2208.41 272.74 2208.41 489.41 2208.41 586.14 2269.68 586.14 2301.41 586.14 2301.41 523.31 2301.41 238.83 2301.41 176.01 2269.68 176.01 2208.41 176.01"/>
  <path class="st0" d="M2254.91,0c-34.04,0-58.95,24.07-58.95,58.11s24.91,56.46,58.95,56.46,60.6-24.08,60.6-56.46c0-34.04-24.91-58.11-60.6-58.11Z"/>
  <path class="st0" d="M889.18,251.56c53.92,0,95.79,28.38,114.54,73.35,6.85-39.07,20.88-74.43,40.74-104.91-35.47-33.87-83.54-53.12-138.69-53.12-58.94,0-109.59,19.92-141.96,53.13V4.98h-93v581.16h83.02l.84-54.8c31.54,39.86,86.34,63.93,151.1,63.93,55.15,0,103.22-19.25,138.69-53.13-19.87-30.48-33.9-65.84-40.74-104.91-18.75,44.97-60.62,73.35-114.54,73.35-73.07,0-125.36-53.13-125.36-129.52s52.3-129.52,125.36-129.52Z"/>
  <path class="st0" d="M1414.45,230.8c-31.55-39.85-85.51-63.93-149.45-63.93-55.22,0-102.43,18.69-137.52,50.92-17.43,16.01-31.98,35.24-42.81,57.42-14.9,30.51-23.07,66.3-23.07,105.85s8.17,75.34,23.07,105.86c10.84,22.19,25.38,41.42,42.81,57.43,35.09,32.23,82.3,50.92,137.52,50.92,63.09,0,117.89-24.07,149.45-63.93l.83,54.8h83.02V176.01h-83.02l-.83,54.79ZM1279.94,510.59c-51.73,0-92.39-26.11-112.18-67.94-8.47-17.92-13.18-38.67-13.18-61.57s4.71-43.66,13.18-61.57c19.78-41.84,60.45-67.94,112.18-67.94,73.89,0,125.37,53.13,125.37,129.52s-51.48,129.52-125.37,129.52Z"/>
  <path class="st0" d="M1787.78,509.76c-38.2,0-57.29-23.25-57.29-64.76v-190.13h117.89v-78.87h-117.89V58.95l-92.16,9.96v107.1h-77.22v78.87h77.22v190.13c0,97.96,49.81,146.96,134.5,146.96,34.04,0,60.6-5.82,92.16-19.93l-25.74-74.72c-15.78,7.47-34.87,12.45-51.47,12.45Z"/>
  <g>
    <path class="st0" d="M541.38,400.85c-1-.17-4.43-.67-5.32-.83-2.88-.5-5.75-1.06-8.61-1.68-37.52-8.17-65.8-27.4-91.78-53.85-25.41-25.86-48.4-53.64-78.77-74.07-68.69-46.2-165.11-46.25-237.44-8.99C60.64,291.73,17.72,345.67,0,407.9v178.24h61.9c-12.81-27.97-24.46-58.91-27.75-86.99-5.56-47.46,3.9-94.76,30.4-134.89,18.93-28.67,43.89-49.95,73.44-65.67,34.95-18.59,75.15-24.86,114.34-21.38,2.3.2,4.6.45,6.89.71.44.05.65.07.96.11.15.03.32.06.7.11,3.12.48,6.23,1,9.33,1.6,8.63,1.67,17.17,3.87,25.53,6.61,17.35,5.7,33.6,14.6,48.15,25.62,25.3,19.16,47.39,47.98,71.44,70.84,29.32,27.87,64.16,48.17,104.08,56.24,20.5,4.14,41.68,5.75,62.74,4.85v-41.61c-5.71.31-11.45.42-17.21.29-7.88-.18-15.75-.76-23.57-1.72Z"/>
    <path class="st0" d="M563.35,317.41c-.79-.06-1.58-.16-2.38-.25-.65-.11-3.22-.48-3.56-.55-6.74-1.33-13.37-2.92-19.88-5.16-5.55-1.92-10.51-4.18-16.94-7.84-2.58-1.47-5.11-3.03-7.59-4.65-1.85-1.21-3.67-2.47-5.47-3.76-.32-.23-2.8-2.12-3.32-2.5-22.76-18.11-41.09-41.18-61.7-61.57-25.81-25.54-54.91-46.41-88.56-60.3-63.76-26.32-140.5-25.11-206.97-9.06C90.23,175.45,39.42,204.31,0,245.41v67.19c34.86-53.95,87-92,150.7-108.93,59.22-15.73,131.19-18.3,190.06,6.31,30.08,12.58,54.91,32.65,77.52,55.69,21.11,21.52,40.5,44.54,64.71,62.75,30.61,23.02,64.74,31.37,99.16,29.96v-40.69c-3.15.15-6.3.33-9.47.25-3.13-.08-6.23-.31-9.34-.54Z"/>
    <path class="st0" d="M573.24,223.44c-11.95-3.35-22.96-8.49-33.22-15.53-22.76-15.6-42.16-43-64.38-62.21-64.08-55.4-149.44-76.73-232.78-73.07-16.33.72-32.51,2.26-48.54,4.43l-82.51,62.32c38.75-13.84,79.33-21.98,121.17-24.65,77.18-4.94,158.67,10.88,217.6,64.18,22.81,20.63,41.3,45.53,66.51,63.51,19.29,13.76,41.86,21.54,65.07,25.12v-42.05c-2.98-.63-5.98-1.22-8.91-2.05Z"/>
    <path class="st0" d="M282.22,40.76c23.73,1.4,47.25,4.72,70.45,9.74L291.08,3.98l-48.06,36.3c13.04-.33,26.1-.29,39.2.48Z"/>
    <path class="st0" d="M226.63,407.02c-19.54,3.99-38.24,15.91-50.62,31.41-16.24,20.34-19.83,44.61-15.62,69.79,4.68,27.98,18.45,53.83,34.45,77.91h50.99c-6.85-9.88-13.53-19.87-19.92-30.06-7.83-12.49-16.87-26.31-20.87-38.9-4.4-13.83-8.23-30.84-1.97-44.61,5.78-12.71,18.66-21.5,31.89-24.85,25.69-6.49,49.9,17.87,66.15,36.41,17.89,20.41,34.08,43.1,47.74,66.56,6.7,11.5,12.61,23.35,17.91,35.45h44.55c-19.59-49.99-48.43-96.27-84.88-135.94-25.76-28.04-60.08-51.29-99.81-43.17Z"/>
    <path class="st0" d="M249.04,504.44c-8.34,9.09-7.23,20.25,0,29.39,2.93,3.71,5.86,7.42,8.76,11.16.45.6,2.88,3.78,3.19,4.19,1.14,1.52,2.28,3.05,3.41,4.58,5.8,7.92,11.34,16.04,16.3,24.52,1.51,2.57,2.86,5.23,4.25,7.86h45.67c-11.57-30.12-32.29-56.54-52.19-81.7-6.77-8.57-22.4-7.61-29.39,0Z"/>
    <path class="st0" d="M509.41,477.53c-24.24-5.69-47.18-14.91-68.59-27.58-8.43-4.98-16.55-10.44-24.39-16.29-.42-.31-.69-.51-.89-.66-.2-.16-.42-.35-.8-.65-1.31-1.05-2.62-2.11-3.91-3.18-2.52-2.08-4.99-4.22-7.43-6.39-.11-.1-.23-.15-.35-.25-31.53-38.2-68.18-73.32-116.11-89.05-42.13-13.83-88.55-7.47-127.69,12.34-43.81,22.17-73.3,64.89-81.9,112.9-6.24,34.83-.81,67.45,14.57,99.02,4.66,9.57,9.68,19.02,14.89,28.38h48.56c-6.38-10.58-12.57-21.28-18.53-32.14-11.28-20.51-20.52-39.98-20.83-64.13-.3-23.69,6.73-46.15,17.91-65.69,1.62-2.82,3.31-5.6,5.11-8.31,1.16-1.73,3.36-6.85,1.59-2.46-.1.25-.16.39-.25.59.24-.44.52-.89.83-1.25,1.39-1.62,2.74-3.25,4.18-4.82,2.09-2.29,4.26-4.51,6.51-6.65,4.42-4.21,9.05-7.98,14.14-11.34,17.71-11.72,36.34-17.82,57.48-21.42.44-.07.69-.12.96-.17.15,0,.4-.02.8-.06,1.4-.13,2.79-.29,4.18-.4,2.42-.2,4.85-.36,7.29-.41,9-.22,17.89.6,26.67,2.61,44.25,10.11,78.2,43.08,106.59,77.23,1.03,1.67,2.27,3.32,4,4.86.01.01.03.02.04.03,1.79,2.19,3.56,4.39,5.3,6.58,30.96,38.86,56.94,81.12,75.18,127.35h127.63v-24.12c-31.93.51-63.91-1.28-94.99-5.6-7.63-17.57-16.24-34.61-25.85-51.15,38.41,14.86,79.71,21.4,120.84,18.85v-41.38c-24.24,2.01-48.76.42-72.75-5.21Z"/>
  </g>
</svg>